<svg viewBox="0 0 255.62 232" xmlns="http://www.w3.org/2000/svg">
  <path fill="#ffffff" d="M91.07,64.6c14.03,3.07,23.71,15.2,23.46,29.59-.07,4.28.39,8.48,1.41,12.58.86,3.46,2.2,6.82,3.56,10.13,2.07,5.03,5.11,9.49,8.68,13.58,4.72,5.43,10.22,9.89,16.66,13.13,2.4,1.22,4.84,2.46,7.4,3.24,3.49,1.07,7.1,1.83,10.7,2.5,2.46.46,5,.52,7.58.77v-26.91c-4.47-.02-8.67-.86-12.53-2.85-11.31-5.82-16.87-15.15-16.97-27.88-.02-3.17-.44-6.37-.91-9.52-.78-5.17-2.63-10.03-4.95-14.68-2.16-4.33-4.92-8.31-8.15-11.92-3.35-3.75-7.11-7.07-11.33-9.8-3.49-2.26-7.16-4.28-11.17-5.54-3.21-1.01-6.44-2.1-9.74-2.74-4.29-.83-8.66-1.08-13.04-.81-2.32.15-4.65.38-6.92.85-2.58.53-5.1,1.35-7.64,2.07-4.26,1.22-8.19,3.19-11.91,5.53-5.64,3.56-10.59,7.91-14.68,13.25-2.49,3.24-4.69,6.64-6.42,10.32-2.26,4.82-3.85,9.86-4.69,15.16-.85,5.32-.85,10.6-.33,15.91.47,4.83,1.71,9.52,3.55,14,2.02,4.95,4.71,9.53,8.02,13.78,4.15,5.34,9.11,9.76,14.83,13.28,5.3,3.27,11,5.66,17.15,6.91,3.84.78,7.67,1.53,11.59,1.37,3.07-.12,6.13-.43,9.19-.72,4.89-.46,9.51-2.02,13.98-3.93,4.32-1.84,8.34-4.26,12.01-7.2,1.76-1.41,3.44-2.94,5.13-4.39-8.66-12.12-8.04-10.28-13.44-26.15-.18.29-.35.52-.49.77-7.13,12.63-22.85,18.24-36.32,12.97-12.75-4.98-20.3-17.5-18.81-31.16,1.88-17.15,18.66-29.2,35.53-25.51"></path>
  <path fill="#ffffff" d="M226.13,84.42c-.86-4.74-2.19-9.3-4.12-13.68-1.88-4.26-4.31-8.21-7.22-11.86-5.12-6.4-11.26-11.6-18.58-15.29-5.43-2.74-11.15-4.59-17.22-5.47-4.7-.68-9.36-.98-14.04-.34-3.55.49-7.13,1.09-10.57,2.07-2.97.85-5.8,2.25-8.64,3.53-5.52,2.5-10.26,6.14-14.72,10.48,6.51,7.58,10.9,16.19,13.32,26.05.28-.47.39-.65.5-.83,6.72-10.95,16.48-16.12,29.3-14.87,14.2,1.38,25.53,13.59,26.14,27.78.64,14.88-9.43,27.89-23.78,30.65-.97.19-1.17.55-1.17,1.45.03,8.04.02,16.08.02,24.12v1.38c8.86-.71,16.88-3.37,24.47-7.69-1.12,8.73-4.92,16.05-12.25,20.72-13.22,8.43-26.01,7.22-37.63-3.06-6.29,6.26-12.56,12.5-18.85,18.75,4.31,4.27,9.17,7.85,14.73,10.46,2.41,1.12,4.82,2.3,7.33,3.1,3.82,1.2,7.73,2.03,11.75,2.45,6.36.65,12.6.2,18.81-1.2,4.19-.95,8.2-2.44,12.04-4.36,4.67-2.33,8.97-5.26,12.81-8.81,4.28-3.95,7.93-8.42,10.83-13.49,2.84-4.95,5-10.17,6.13-15.76.6-2.96,1.19-5.98,1.22-8.98.12-15.04.07-30.07.05-45.11-.01-4.07.07-8.12-.67-12.19"></path>
</svg>