<svg xmlns="http://www.w3.org/2000/svg" viewBox="0 0 8531.6 1847.8" width="1500" height="325" role="img" aria-label="SolitonAI">
  <title>SolitonAI — wordmark (vettoriale statico)</title>
  <defs>
    <linearGradient id="shine" gradientUnits="userSpaceOnUse" x1="1319.2" y1="-3432.1" x2="7212.4" y2="4984.1">
      <stop offset="0" stop-color="#008987"></stop>
      <stop offset="0.13" stop-color="#008987"></stop>
      <stop offset="0.25" stop-color="#00ffe3"></stop>
      <stop offset="0.37" stop-color="#008987"></stop>
      <stop offset="0.63" stop-color="#008987"></stop>
      <stop offset="0.75" stop-color="#00ffe3"></stop>
      <stop offset="0.87" stop-color="#008987"></stop>
      <stop offset="1" stop-color="#008987"></stop>
    </linearGradient>
    <linearGradient id="aiS" x1="0" y1="1" x2="1" y2="0">
      <stop offset="0" stop-color="#008987"></stop><stop offset="1" stop-color="#00ffe3"></stop>
    </linearGradient>
  </defs>
  <g transform="translate(122.9,1699.9) scale(1,-1)">
    <g fill="url(#shine)"><path transform="translate(0,0)" d="M688 -25Q495 -25 321.5 35.5Q148 96 16 213L238 477Q456 305 702 305Q783 305 825.5 331.0Q868 357 868 403Q868 451 826.0 470.0Q784 489 625 526Q551 543 498.0 557.5Q445 572 385.0 593.5Q325 615 283.5 638.0Q242 661 201.5 694.0Q161 727 137.0 765.5Q113 804 98.5 855.5Q84 907 84 969Q84 1179 236.0 1305.5Q388 1432 639 1432Q991 1432 1229 1241L1030 961Q834 1102 629 1102Q559 1102 522.0 1076.5Q485 1051 485 1010Q485 957 533.5 931.0Q582 905 735 872Q842 849 917.5 826.5Q993 804 1063.5 769.5Q1134 735 1176.0 691.5Q1218 648 1243.0 586.5Q1268 525 1268 446Q1268 225 1111.5 100.0Q955 -25 688 -25Z"></path><path transform="translate(1323,0)" d="M653 -25Q493 -25 355.0 50.5Q217 126 136.0 254.0Q55 382 55.0 530.0Q55 678 136.0 805.5Q217 933 355.0 1008.0Q493 1083 653 1083Q812 1083 949.5 1008.0Q1087 933 1168.0 805.5Q1249 678 1249.0 530.0Q1249 382 1168.0 254.0Q1087 126 949.5 50.5Q812 -25 653 -25ZM653 303Q745 303 813.0 370.5Q881 438 881.0 530.0Q881 622 813.0 689.0Q745 756 653 756Q559 756 491.5 689.0Q424 622 424.0 530.0Q424 438 491.5 370.5Q559 303 653 303Z"></path><path transform="translate(2625,0)" d="M113 0V1432H508V0Z"></path><path transform="translate(3245,0)" d="M313 1171Q228 1171 168.5 1231.5Q109 1292 109 1376Q109 1457 168.5 1517.0Q228 1577 313 1577Q395 1577 454.5 1516.5Q514 1456 514 1376Q514 1292 455.0 1231.5Q396 1171 313 1171ZM113 0V1059H508V0Z"></path><path transform="translate(3867,0)" d="M733 334 801 84Q751 36 674.5 5.5Q598 -25 528 -25Q370 -25 270.0 75.5Q170 176 170 334V748H37V1059H170V1350H547V1059H756V748H547V412Q547 365 572.0 334.0Q597 303 637 303Q699 303 733 334Z"></path><path transform="translate(4718,0)" d="M653 -25Q493 -25 355.0 50.5Q217 126 136.0 254.0Q55 382 55.0 530.0Q55 678 136.0 805.5Q217 933 355.0 1008.0Q493 1083 653 1083Q812 1083 949.5 1008.0Q1087 933 1168.0 805.5Q1249 678 1249.0 530.0Q1249 382 1168.0 254.0Q1087 126 949.5 50.5Q812 -25 653 -25ZM653 303Q745 303 813.0 370.5Q881 438 881.0 530.0Q881 622 813.0 689.0Q745 756 653 756Q559 756 491.5 689.0Q424 622 424.0 530.0Q424 438 491.5 370.5Q559 303 653 303Z"></path><path transform="translate(6020,0)" d="M799 1083Q969 1083 1078.5 968.5Q1188 854 1188 674V0H811V582Q811 659 766.0 707.5Q721 756 651 756Q585 756 542.5 710.5Q500 665 500 594V0H104V1059H500V952Q550 1014 627.5 1048.5Q705 1083 799 1083Z"></path></g>
    <g transform="translate(7366.0,977.7) scale(0.42)" fill="url(#aiS)"><path transform="translate(0,0)" d="M1083 0 1012 188H522L451 0H2L543 1407H991L1532 0ZM635 481H899L768 823Z"></path><path transform="translate(1533,0)" d="M131 0V1407H528V0Z"></path></g>
  </g>
</svg>